<svg width="105" height="30" viewBox="0 0 105 30" fill="none" xmlns="http://www.w3.org/2000/svg">
<path d="M14.6077 13.8226C13.4188 13.1503 12.0725 12.8031 10.7054 12.8162C9.25851 12.8162 7.96419 13.0564 6.82241 13.5368C5.7251 13.9984 4.86218 14.5767 4.2337 15.2718V0H0.00808327V18.3996C1.46713 19.1896 2.9272 19.3496 4.38625 19.1523C4.58338 18.6262 4.88787 18.1465 5.28049 17.7434C5.77443 17.2464 6.36331 16.8529 7.01236 16.5861C7.69864 16.2957 8.43709 16.1474 9.18275 16.1503C9.93995 16.1412 10.6886 16.3098 11.3683 16.6424C12.992 15.9923 14.6168 15.5234 16.2406 15.7256C16.4517 15.7518 16.6639 15.79 16.8751 15.8373C16.2701 15.0143 15.4975 14.3277 14.6077 13.8226Z" fill="#AE8FB1"/>
<path d="M30.4966 12.8172C28.7202 12.8172 27.1467 13.1966 25.7759 13.9554C24.4468 14.674 23.3357 15.7347 22.5587 17.0269C22.3639 17.3497 22.1927 17.686 22.0464 18.0333C22.9507 18.4358 23.855 18.775 24.7584 18.9098C25.2563 18.9845 25.7614 18.999 26.2628 18.9531C26.278 18.9229 26.2931 18.8927 26.3093 18.8625C26.695 18.1131 27.273 17.4788 27.9846 17.0239C28.6994 16.5672 29.5332 16.3296 30.3824 16.3405C30.7788 16.3385 31.1739 16.3858 31.5585 16.4814C32.1611 15.9877 32.7366 15.462 33.2823 14.9065C33.6865 14.4959 34.0907 14.0601 34.4948 13.6133C33.318 13.0832 31.9852 12.8179 30.4966 12.8172Z" fill="#AE8FB1"/>
<path d="M52.0064 13.3868C51.6154 13.5646 51.237 13.7687 50.8737 13.9977C51.9084 14.4938 52.9421 14.6911 53.9767 14.7867L54.1 12.8172C53.5416 12.8172 52.8437 13.0071 52.0064 13.3868Z" fill="#AE8FB1"/>
<path d="M65.9371 12.8172C64.333 12.7994 62.7519 13.1983 61.3498 13.9745C60.6465 14.3626 59.9968 14.8399 59.4168 15.3945C60.6768 15.79 61.943 16.4221 63.1989 16.8226L63.2342 16.7994C63.9424 16.363 64.762 16.139 65.5946 16.1544C66.3686 16.1544 67.0267 16.2912 67.569 16.565C68.5158 15.9953 69.4635 15.0272 70.4092 13.9906C69.157 13.209 67.6663 12.8179 65.9371 12.8172Z" fill="#AE8FB1"/>
<path d="M87.4045 13.1332C86.4113 13.8971 85.4171 14.4123 84.4228 14.3529C83.6357 14.3097 82.8476 13.9051 82.0605 13.3466C82.9896 12.9882 83.9781 12.8069 84.9745 12.8122C85.796 12.7996 86.6148 12.9078 87.4045 13.1332Z" fill="#AE8FB1"/>
<path d="M105 0.00101694V8.31267C103.834 8.50962 102.649 8.56303 101.47 8.47169C101.225 8.44854 100.981 8.41734 100.736 8.38011V0.00101694H105Z" fill="#AE8FB1"/>
<path d="M5.41282 24.9078C3.6082 25.8659 1.8036 26.7746 0 27.3432V18.4016C1.45905 19.1916 2.91907 19.3516 4.37812 19.1544C4.33568 19.2644 4.29732 19.3771 4.26297 19.4925V23.0148C4.4797 23.677 4.83708 24.2848 5.31079 24.7971C5.34716 24.8364 5.38149 24.8716 5.41282 24.9078Z" fill="#889BD3"/>
<path d="M18.5048 21.2355C18.5048 21.3986 18.5049 21.5606 18.4958 21.7196C17.0387 21.3674 15.5827 21.2033 14.1257 21.3704C14.1257 21.3261 14.1257 21.2808 14.1257 21.2355C14.1408 20.3344 13.9174 19.4451 13.478 18.6572C13.0559 17.9081 12.446 17.2808 11.7077 16.8367C11.5946 16.7696 11.4794 16.7062 11.3622 16.6465C12.9859 15.9964 14.6107 15.5274 16.2344 15.7297C16.4456 15.7558 16.6578 15.7941 16.869 15.8414C17.0763 16.1235 17.2663 16.4179 17.4378 16.723C18.1492 17.9883 18.5048 19.4925 18.5048 21.2355Z" fill="#889BD3"/>
<path d="M26.6499 24.5566C25.3161 24.2164 23.9824 23.6418 22.6486 23.1104C22.2556 22.9534 21.8615 22.8005 21.4684 22.6555C21.4204 22.2346 21.3968 21.8112 21.3977 21.3875C21.3859 20.2384 21.6065 19.0987 22.0464 18.0363C22.9507 18.4388 23.8551 18.778 24.7584 18.9128C25.2563 18.9875 25.7614 19.0021 26.2628 18.9561C25.8832 19.7235 25.6904 20.5693 25.7001 21.4248C25.6837 22.321 25.8921 23.2072 26.3064 24.0031C26.4093 24.1945 26.5239 24.3794 26.6499 24.5566Z" fill="#889BD3"/>
<path d="M35.0587 21.7257C35.0637 21.625 35.0657 21.5244 35.0657 21.4237C35.0813 20.5275 34.873 19.6415 34.4594 18.8454C34.0719 18.1084 33.5019 17.4821 32.8034 17.0259C32.4226 16.7775 32.0029 16.5942 31.5615 16.4834C32.1642 15.9897 32.7396 15.464 33.2853 14.9085C33.6894 14.4979 34.0936 14.0621 34.4978 13.6153C34.7261 13.7159 34.9485 13.8316 35.1647 13.9544C36.4612 14.6769 37.5343 15.7391 38.2677 17.0259C38.5507 17.5216 38.781 18.0454 38.9548 18.5888C37.6534 19.417 36.356 20.6096 35.0587 21.7257Z" fill="#889BD3"/>
<path d="M53.9767 14.7867L53.8343 17.0641C52.6413 16.9635 51.5942 17.1785 50.6929 17.7092C49.8116 18.2195 49.0876 18.9606 48.5993 19.8518C48.567 19.9112 48.5346 19.9705 48.5043 20.0309C48.4093 19.9474 48.3144 19.8649 48.2194 19.7854C46.6896 18.5053 45.1608 17.7102 43.6311 17.4757V13.5358H47.3999L47.7495 17.3389C48.1525 16.425 48.7625 15.6165 49.5319 14.9769C49.9554 14.6188 50.4038 14.2909 50.8737 13.9957C51.9084 14.4938 52.9421 14.6911 53.9767 14.7867Z" fill="#889BD3"/>
<path d="M74.2771 20.1356L68.4369 22.097C67.38 21.2919 66.3231 20.6649 65.2662 20.6881C63.9325 20.7213 62.5977 21.787 61.2639 22.9454C61.1194 23.0702 60.9739 23.197 60.8294 23.3238C59.8049 24.2205 58.7792 25.1111 57.7547 25.569C57.1484 24.3493 56.8453 22.9669 56.8453 21.4217C56.8453 19.8041 57.2515 18.3506 58.0639 17.0611C58.4468 16.4511 58.9035 15.8904 59.4239 15.3915C60.6839 15.787 61.95 16.419 63.2059 16.8196C62.5336 17.2504 61.9876 17.8507 61.6236 18.5596C61.2295 19.305 61.0328 20.1708 61.0335 21.1571C61.0335 21.3946 61.044 21.6247 61.0649 21.8474L69.5201 18.8283C69.2363 18.1293 68.7943 17.5049 68.2287 17.0037C68.0318 16.828 67.8123 16.6791 67.576 16.5609C68.5228 15.9913 69.4706 15.0232 70.4163 13.9866C70.7675 14.2051 71.0991 14.4532 71.4075 14.7283C72.8376 16.0078 73.7942 17.8102 74.2771 20.1356Z" fill="#889BD3"/>
<path d="M95.1019 13.5358V19.5408C93.6803 20.199 92.2586 21.0846 90.836 21.3684L90.7995 21.3754V19.6032C90.6025 18.9573 90.2565 18.3662 89.7891 17.8773C89.3154 17.3825 88.7454 16.989 88.1139 16.721C87.4458 16.4391 86.7266 16.2973 86.0011 16.3043C85.1452 16.2955 84.3029 16.5181 83.564 16.9484C82.831 17.3761 82.2263 17.9915 81.8129 18.7307C81.3818 19.4895 81.1662 20.3617 81.1662 21.3473C81.1662 21.4479 81.1662 21.5485 81.1753 21.6492C79.8617 22.412 78.5371 23.5885 77.2185 24.467C76.9721 23.5225 76.8528 22.5495 76.8638 21.5737C76.8638 19.7542 77.2383 18.1933 77.9874 16.891C78.6862 15.637 79.7118 14.5939 80.956 13.8719C81.3096 13.6687 81.6781 13.4924 82.0584 13.3446C82.8455 13.9021 83.6336 14.3066 84.4208 14.3509C85.415 14.4103 86.4093 13.895 87.4026 13.1312C87.8621 13.2663 88.3002 13.4651 88.704 13.7219C89.5336 14.2451 90.2557 14.9207 90.8319 15.7126L91.1401 13.5317L95.1019 13.5358Z" fill="#889BD3"/>
<path d="M105 8.31267V25.8136C103.822 23.7203 102.315 21.3684 100.736 19.9947V8.38111C100.981 8.41835 101.225 8.44954 101.47 8.47268C102.649 8.56369 103.834 8.50995 105 8.31267Z" fill="#889BD3"/>
<path d="M18.4958 21.7196C18.4324 23.3338 18.0485 24.7334 17.3439 25.9182C16.6093 27.1841 15.5435 28.2276 14.2601 28.9374C13.8348 29.172 13.3903 29.3703 12.9314 29.5301C12.0181 29.8453 11.0576 30.0038 10.0911 29.9991C9.11184 30.0137 8.13784 29.8549 7.21441 29.5301C6.93406 29.4278 6.66124 29.3061 6.39798 29.1658C5.59095 28.7406 4.86848 28.1724 4.26598 27.4892V29.5824H0.00300956V27.3473C1.80661 26.7787 3.61121 25.8699 5.41582 24.9119C5.86781 25.3675 6.40967 25.7248 7.00724 25.9615C7.69807 26.2326 8.43515 26.3676 9.17763 26.359C10.0663 26.3725 10.9418 26.1431 11.7088 25.6958C12.4527 25.2589 13.0644 24.6299 13.479 23.8753C13.8992 23.1082 14.1214 22.2492 14.1257 21.3754C15.5827 21.2034 17.0387 21.3674 18.4958 21.7196Z" fill="#424E74"/>
<path d="M39.363 21.3493C39.363 22.9923 38.9952 24.4647 38.2596 25.7663C37.5308 27.0614 36.457 28.1309 35.1566 28.8568C34.6714 29.1319 34.1588 29.3559 33.6269 29.5251C32.5752 29.8491 31.4791 30.0073 30.3783 29.994C29.2861 30.0037 28.1989 29.8455 27.1551 29.5251C26.6721 29.3738 26.2029 29.1819 25.7526 28.9514C24.4234 28.2837 23.3137 27.2511 22.5546 25.9756C21.9566 24.9591 21.5848 23.8266 21.4644 22.6545C21.8574 22.7995 22.2515 22.9565 22.6446 23.1094C23.9783 23.6408 25.312 24.2164 26.6458 24.5556C26.9985 25.0575 27.4443 25.4876 27.9593 25.8226C28.6668 26.2806 29.4953 26.5182 30.339 26.5049C31.278 26.5049 32.0964 26.2775 32.7943 25.8226C33.4931 25.3663 34.0632 24.7396 34.4503 24.0021C34.8218 23.298 35.029 22.5195 35.0566 21.7246C36.354 20.6086 37.6514 19.416 38.9488 18.5888C39.2305 19.4818 39.3702 20.4132 39.363 21.3493Z" fill="#424E74"/>
<path d="M48.5043 20.0309C48.0789 20.8485 47.8568 21.7558 47.8566 22.6767V29.5774H43.6311V17.4757C45.1608 17.7102 46.6896 18.5053 48.2194 19.7854C48.3144 19.8649 48.4093 19.9474 48.5043 20.0309Z" fill="#424E74"/>
<path d="M71.4944 28.25C70.6341 28.7919 69.706 29.2189 68.7339 29.52L68.7178 29.5251C67.7823 29.8281 66.8057 29.9863 65.822 29.994C64.6994 30.0069 63.5813 29.8488 62.5067 29.5251C61.9875 29.3634 61.4851 29.1524 61.0063 28.8951C59.6957 28.2089 58.6167 27.1541 57.9033 25.8619C57.8507 25.7612 57.8023 25.6696 57.7507 25.572C58.7753 25.1141 59.8008 24.2235 60.8254 23.3268C60.9699 23.2 61.1154 23.0732 61.2599 22.9484C62.5936 21.7901 63.9284 20.7243 65.2622 20.6911C66.3191 20.6649 67.376 21.2869 68.4329 22.1L61.8954 24.2959C62.2858 24.8883 62.8123 25.3796 63.4313 25.729C64.1992 26.1538 65.066 26.3694 65.9442 26.354C66.5942 26.3557 67.2392 26.2401 67.8478 26.0128C68.4562 25.7872 69.0321 25.4826 69.5605 25.1071L71.4944 28.25Z" fill="#424E74"/>
<path d="M95.1019 19.5428V29.5774H90.7995V27.2336L90.6288 27.4348C90.252 27.8524 89.8305 28.2276 89.3718 28.5539C88.8263 28.9518 88.2317 29.2782 87.6026 29.5251L87.4682 29.5774C86.6698 29.868 85.8244 30.0093 84.9745 29.994C83.9575 30.0026 82.9459 29.8442 81.9806 29.5251C81.5901 29.3946 81.2101 29.2348 80.8439 29.047C79.6128 28.4147 78.5989 27.4312 77.9318 26.2222C77.6233 25.6699 77.3857 25.0813 77.2245 24.47C78.5381 23.5925 79.8628 22.416 81.1814 21.6522C81.2153 22.4669 81.4472 23.2612 81.8573 23.9669C82.2923 24.7288 82.9147 25.3681 83.666 25.8246C84.4166 26.2803 85.2807 26.5167 86.1597 26.507C86.8776 26.5139 87.5896 26.377 88.2533 26.1044C88.8748 25.849 89.4237 25.4453 89.8518 24.9289C90.2949 24.3893 90.6192 23.7628 90.8036 23.0903V21.3795L90.84 21.3724C92.2586 21.0836 93.6802 20.201 95.1019 19.5428Z" fill="#424E74"/>
<path d="M105 25.8136V29.5784H100.736V19.9947C102.312 21.3674 103.822 23.7193 105 25.8136Z" fill="#424E74"/>
</svg>
